<svg id="Layer_1" data-name="Layer 1" xmlns="http://www.w3.org/2000/svg" viewBox="0 0 48 48"><defs><style>.cls-1{fill:#0d47a1;}.cls-2{fill:#90caf9;}.cls-3{fill:#f1f9ff;}</style></defs><title>Artboard 1</title><g id="Layer0_0_FILL" data-name="Layer0 0 FILL"><path class="cls-1" d="M31.35,12.75l0,.3c.05.31.1.62.15.95a.86.86,0,0,0,.25.55l.1,0,.05.05a3.35,3.35,0,0,0,.9.35,1.39,1.39,0,0,1,1,.55,1.66,1.66,0,0,1,.3,1.1v1.2a1,1,0,0,0,.55.8,1.44,1.44,0,0,1,.8.6,1.36,1.36,0,0,1,.35.9,2.28,2.28,0,0,1,1.35,1.3c.33.3.6.23.8-.2l.1-.2a4.35,4.35,0,0,1,.55-.5,13.74,13.74,0,0,0-4-7.15A15.44,15.44,0,0,0,32,11.25a1.65,1.65,0,0,0-.6,1.5M24.7,21c-.5-.13-.77,0-.8.45h0a1.17,1.17,0,0,1,.15.55v.1a1.52,1.52,0,0,1-.15.5,3.39,3.39,0,0,1-.85.8,2.93,2.93,0,0,1-1.05.45.06.06,0,0,1-.05,0c-.17.1-.22.18-.15.25l-.65-.3a.63.63,0,0,0-.65,0,2,2,0,0,0-.4.7,3.17,3.17,0,0,0,0,1.5l.4.85a8.85,8.85,0,0,1,1.3,5.3L22.55,39c.5,0,1,0,1.45,0H25l-.4-3.7-.25-2.2a19.28,19.28,0,0,1-.05-2l.15-2a.19.19,0,0,0,.05-.1.82.82,0,0,0-.25-.8l-.05-.05,0-.1c-.09-.19,0-.43.2-.7a2.94,2.94,0,0,0,.5-1.65,5.44,5.44,0,0,1,.65-.9l.45-.4q.26-.3.3.15c0,.17.17.22.4.15s.4-.5.4-1.1A4,4,0,0,0,24.7,21m5.9-8.85a1.31,1.31,0,0,1,.6-1.35,8.13,8.13,0,0,0-1.45-.7A15.17,15.17,0,0,0,24,9l-1.55.1q-3,3.3-1.65,6a2.13,2.13,0,0,0,1.7,1.25,3.11,3.11,0,0,1,2.3,3.3,3.88,3.88,0,0,1,2.7,3.8c0,.43.12.65.45.65s.62.27.55.6l-.15.65v.05a.91.91,0,0,0,.3,1l.1.05,1.45,1.3a2.17,2.17,0,0,0,2.55-.45A24.09,24.09,0,0,0,36,23.9,2.09,2.09,0,0,0,36.5,22a.93.93,0,0,0-.7-.7A10.6,10.6,0,0,1,33.7,20a7.74,7.74,0,0,1-1.65-1.5,2,2,0,0,1-.7-1.55,1.72,1.72,0,0,1,.9-1.5l-.6-.3a2.14,2.14,0,0,1-.65-1.1,9.05,9.05,0,0,1-.35-1.2c0-.23,0-.46,0-.7M30,23.05l-.4-.35a3,3,0,0,0,1.75.55,2.61,2.61,0,0,1,1.6.3c.4.23.38.57-.05,1l-.45,1a1.05,1.05,0,0,1-.35.55l-.1,0a1.08,1.08,0,0,1-.5.2.72.72,0,0,1-.6-.4l-.1-.5V25.4A8.44,8.44,0,0,0,31,24.2v-.1a.69.69,0,0,0-.2-.5,3.61,3.61,0,0,1-.75-.55m9,1.35V24a12.46,12.46,0,0,0-.15-2.45,1.61,1.61,0,0,0-.6,1.3A2.94,2.94,0,0,0,39,24.4Z"/><path class="cls-2" d="M29.6,22.7l.4.35a3.07,3.07,0,0,0,.75.5.73.73,0,0,1,.2.55v.1a8.44,8.44,0,0,1-.15,1.2v.05l.1.5a.67.67,0,0,0,.6.35.8.8,0,0,0,.5-.15l.1,0a1.05,1.05,0,0,0,.35-.55l.45-1c.43-.43.45-.77.05-1a2.61,2.61,0,0,0-1.6-.3,3,3,0,0,1-1.75-.55M32,11.25l-.75-.45a1.31,1.31,0,0,0-.6,1.35c0,.24,0,.47,0,.7a9.05,9.05,0,0,0,.35,1.2,2.14,2.14,0,0,0,.65,1.1l.6.3a1.72,1.72,0,0,0-.9,1.5,2,2,0,0,0,.7,1.55A7.74,7.74,0,0,0,33.7,20a10.6,10.6,0,0,0,2.1,1.25.93.93,0,0,1,.7.7A2.09,2.09,0,0,1,36,23.9a24.09,24.09,0,0,1-3.25,3.4,2.17,2.17,0,0,1-2.55.45l-1.45-1.3-.1-.05a.91.91,0,0,1-.3-1V25.3l.15-.65c.07-.33-.12-.53-.55-.6s-.48-.22-.45-.65a3.88,3.88,0,0,0-2.7-3.8,3.11,3.11,0,0,0-2.3-3.3,2.13,2.13,0,0,1-1.7-1.25q-1.39-2.66,1.65-6a15.37,15.37,0,0,0-3.05.55,13.37,13.37,0,0,0-2.2.95,9.79,9.79,0,0,0-.75,2.7,30.84,30.84,0,0,0-.3,4.45,23,23,0,0,1-.1,2.35A33.23,33.23,0,0,1,15.5,24a32.72,32.72,0,0,0-.45,5,62.11,62.11,0,0,0,.45,7.4,15.41,15.41,0,0,0,1.65,1A14.82,14.82,0,0,0,22,38.9l.55.05L21.8,32.2a8.85,8.85,0,0,0-1.3-5.3l-.4-.85a3.16,3.16,0,0,1-.05-1.5,1.92,1.92,0,0,1,.45-.7.63.63,0,0,1,.65,0l.65.3c-.07-.07,0-.15.15-.25a.06.06,0,0,0,.05,0,2.93,2.93,0,0,0,1.05-.45,3.39,3.39,0,0,0,.85-.8,1.52,1.52,0,0,0,.15-.5V22a1.17,1.17,0,0,0-.15-.55h0c0-.43.3-.58.8-.45A4,4,0,0,1,27,23.65c0,.6-.13,1-.4,1.1s-.37,0-.4-.15-.13-.35-.3-.15l-.45.4a4.7,4.7,0,0,0-.6.9,3.72,3.72,0,0,1-.5,1.65c-.25.27-.33.51-.25.7l0,.1.05.05a.82.82,0,0,1,.25.8.19.19,0,0,1-.05.1l-.15,2c0,.66,0,1.32.1,2l.2,2.2L25,39l1.6-.2a23.82,23.82,0,0,0,2.65-.65,15.4,15.4,0,0,0,3.05-1.55l-.2-5.1c-.13-1,.63-1.33,2.3-1.1l3.15.25A13.41,13.41,0,0,0,39,24.4a2.94,2.94,0,0,1-.75-1.55,1.61,1.61,0,0,1,.6-1.3l-.2-1a4.35,4.35,0,0,0-.55.5l-.1.2c-.2.43-.47.5-.8.2a2.28,2.28,0,0,0-1.35-1.3,1.36,1.36,0,0,0-.35-.9,1.44,1.44,0,0,0-.8-.6,1,1,0,0,1-.55-.8v-1.2a1.66,1.66,0,0,0-.3-1.1,1.39,1.39,0,0,0-1-.55,3.35,3.35,0,0,1-.9-.35l-.05-.05-.1,0a1,1,0,0,1-.3-.55c0-.32-.06-.64-.1-.95l0-.3A1.65,1.65,0,0,1,32,11.25Z"/><path class="cls-3" d="M32.25,36.6a14.66,14.66,0,0,0,2.35-2,14.49,14.49,0,0,0,2.9-4l-3.15-.25c-1.67-.23-2.43.13-2.3,1.1l.2,5.1m-15-26c-.2.13-.68.42-1.45.85a16.31,16.31,0,0,0-2.35,2A14.45,14.45,0,0,0,9,24a14.69,14.69,0,0,0,1.15,5.75A14,14,0,0,0,13.4,34.6a16.8,16.8,0,0,0,2.1,1.8,62.11,62.11,0,0,1-.45-7.4,32.72,32.72,0,0,1,.45-5,33.23,33.23,0,0,0,.55-3.9,23,23,0,0,0,.1-2.35,30.84,30.84,0,0,1,.3-4.45A9.16,9.16,0,0,1,17.2,10.55Z"/></g></svg>