<svg id="Layer_1" data-name="Layer 1" xmlns="http://www.w3.org/2000/svg" xmlns:xlink="http://www.w3.org/1999/xlink" viewBox="0 0 80 80"><defs><style>.cls-1{fill:#fff;}.cls-2{fill:url(#linear-gradient);}.cls-3{fill:url(#linear-gradient-2);}.cls-4{fill:#301f82;}.cls-5{fill:#33322d;}.cls-6{fill:url(#radial-gradient);}.cls-7,.cls-8{fill:none;stroke-linecap:round;stroke-linejoin:round;stroke-width:0.05px;}.cls-7{stroke:#301f82;}.cls-8{stroke:#000;}.cls-9{fill:#231565;}</style><linearGradient id="linear-gradient" x1="648.42" y1="-362.88" x2="648.42" y2="-155.11" gradientTransform="matrix(0.18, 0, 0, -0.18, -80.9, -14.11)" gradientUnits="userSpaceOnUse"><stop offset="0" stop-color="#060"/><stop offset="0.33" stop-color="#b1d0b1"/><stop offset="0.56" stop-color="#fff"/><stop offset="0.76" stop-color="#ffe7c1"/><stop offset="1" stop-color="#f90"/></linearGradient><linearGradient id="linear-gradient-2" x1="31.95" y1="46.61" x2="48.71" y2="51.82" gradientTransform="matrix(1, 0, 0, -1, 0, 80)" gradientUnits="userSpaceOnUse"><stop offset="0" stop-color="#fff"/><stop offset="1" stop-color="#fff" stop-opacity="0"/></linearGradient><radialGradient id="radial-gradient" cx="29.31" cy="92.8" r="23.84" gradientTransform="matrix(0.18, 0, 0, -0.18, 46.88, 30.39)" gradientUnits="userSpaceOnUse"><stop offset="0" stop-color="#fff"/><stop offset="0.63" stop-color="#7c72a4"/><stop offset="1" stop-color="#5744a4"/></radialGradient></defs><title>IJR-Logo</title><g id="Layer0_0_FILL" data-name="Layer0 0 FILL"><path class="cls-1" d="M80,80V0H0V80Z"/></g><g id="Layer0_1_MEMBER_0_FILL" data-name="Layer0 1 MEMBER 0 FILL"><path class="cls-2" d="M50.55,16a3.83,3.83,0,0,1-.55-.46,3.06,3.06,0,0,1-.63-.9A133.87,133.87,0,0,1,26,14.44L37,52.77Q54.23,39.19,50.55,16Z"/></g><g id="Layer0_1_MEMBER_1_FILL" data-name="Layer0 1 MEMBER 1 FILL"><path class="cls-3" d="M25.33,14.42Q24.9,34,36.7,52.94,54.24,39.2,50.56,16a1.89,1.89,0,0,1-.56-.5,3.46,3.46,0,0,1-.63-.87A138.35,138.35,0,0,1,25.33,14.42Z"/></g><g id="Layer0_1_MEMBER_2_FILL" data-name="Layer0 1 MEMBER 2 FILL"><path class="cls-4" d="M30.67,26.22a27.05,27.05,0,0,1-4,1.05l0,.74,2.07-.42a52.76,52.76,0,0,1-.62,10.28l1.73-.38q.24-6.53.73-11.27m3.55,1.37-.44,9.85a.07.07,0,0,1,0,.05,15.1,15.1,0,0,1-.19,1.63,6.88,6.88,0,0,1-.42,1.5,8.56,8.56,0,0,1-3,3.49l.47.38a11.72,11.72,0,0,0,3.75-3.73,6.1,6.1,0,0,0,.64-1.65,14.78,14.78,0,0,0,.25-1.62c0-.13,0-.27,0-.41l.72-10.86c-.45.16-.92.3-1.42.44l-.63.17c-.62.17-1.25.31-1.91.44l0,.74,2.07-.42m2.15-4.82a1.55,1.55,0,0,0,.38-1,1.53,1.53,0,0,0-.31-1,1,1,0,0,0-.83-.4,1.09,1.09,0,0,0-.85.4,1.59,1.59,0,0,0-.38,1,1.4,1.4,0,0,0,.31,1,1,1,0,0,0,.83.42,1.08,1.08,0,0,0,.85-.42m-5.85,0a1.5,1.5,0,0,0,.38-1,1.43,1.43,0,0,0-.31-1,1,1,0,0,0-.82-.4,1.11,1.11,0,0,0-.86.4,1.71,1.71,0,0,0-.38,1,1.45,1.45,0,0,0,.31,1,1,1,0,0,0,.83.42,1.07,1.07,0,0,0,.85-.42m12.76,7.4q1.15-2.39,2.4-1.92V26.33q-1.3-.39-2.67,2.59a14.65,14.65,0,0,1-1.41,3.24L42,26.22a26.85,26.85,0,0,1-4,1.05L38,28l2.07-.42a65.64,65.64,0,0,1-.38,9.9h1.13l.81-3.18a24.45,24.45,0,0,1,1.61-4.14m-1.56-1.52,0-.41Z"/><path d="M55.5,13.29A3.22,3.22,0,0,0,50,11a3.43,3.43,0,0,0-.76,1.16,114.1,114.1,0,0,1-23.56,1.09s0,0-.06,0l0,0a.13.13,0,0,0,0,.06v.93a.08.08,0,0,0,0,.07.14.14,0,0,0,.08.05,134.28,134.28,0,0,0,23.7.25,3.06,3.06,0,0,0,.63.9,3.83,3.83,0,0,0,.55.46Q54.23,39.19,37,52.77l0,0a.06.06,0,0,0,0,.06.08.08,0,0,0,0,0l.53.63a.12.12,0,0,0,.08,0,.11.11,0,0,0,.08,0Q56.44,40.34,54.11,16a3.23,3.23,0,0,0,.45-.38,3.1,3.1,0,0,0,.94-2.28m-3.22-2.6a2.49,2.49,0,0,1,1.83.76,2.6,2.6,0,0,1,0,3.67,2.6,2.6,0,0,1-4.43-1.83,2.59,2.59,0,0,1,2.6-2.6m-3.22,2.6a3.11,3.11,0,0,0,.21,1.16A134.57,134.57,0,0,1,25.8,14.2v-.71a114.32,114.32,0,0,0,23.37-1.07,3.45,3.45,0,0,0-.11.87m3.22,3.22a3.09,3.09,0,0,0,1.61-.42q2.25,24.1-16.26,37.23l-.38-.44q17.16-13.59,13.57-36.7A3.23,3.23,0,0,0,52.28,16.51Z"/><path class="cls-5" d="M53.89,16.09a3.09,3.09,0,0,1-1.61.42,3.23,3.23,0,0,1-1.46-.33q3.59,23.1-13.57,36.7l.38.44Q56.14,40.21,53.89,16.09m-4.62-1.64a3.11,3.11,0,0,1-.21-1.16,3.45,3.45,0,0,1,.11-.87A114.32,114.32,0,0,1,25.8,13.49v.71A134.57,134.57,0,0,0,49.27,14.45Z"/><path class="cls-6" d="M54.11,11.45a2.6,2.6,0,0,0-4.43,1.84,2.6,2.6,0,0,0,4.43,1.83,2.6,2.6,0,0,0,0-3.67Z"/></g><path id="Layer0_1_MEMBER_2_1_STROKES" data-name="Layer0 1 MEMBER 2 1 STROKES" class="cls-7" d="M54.87,13.29a2.53,2.53,0,0,1-.76,1.83,2.6,2.6,0,0,1-4.43-1.83,2.6,2.6,0,0,1,4.43-1.84A2.54,2.54,0,0,1,54.87,13.29Z"/><path id="Layer0_1_MEMBER_2_2_STROKES" data-name="Layer0 1 MEMBER 2 2 STROKES" class="cls-8" d="M41.72,28.65l0-.41"/><g id="Layer0_1_MEMBER_3_MEMBER_0_FILL" data-name="Layer0 1 MEMBER 3 MEMBER 0 FILL"><path class="cls-9" d="M24,56.49c0-.05,0-.09-.06-.1H21.67s-.05,0-.06.1a.2.2,0,0,0,.05.14l.17,0c.21,0,.34.08.38.16a2,2,0,0,1,.1.78v3.09a2,2,0,0,1-.1.79c0,.09-.17.14-.38.16l-.17,0a.17.17,0,0,0-.05.13.15.15,0,0,0,.06.11h2.22a.15.15,0,0,0,.06-.11.17.17,0,0,0-.05-.13l-.17,0c-.21,0-.33-.07-.38-.16a2.07,2.07,0,0,1-.09-.79V57.59a2,2,0,0,1,.09-.78.48.48,0,0,1,.38-.16l.17,0a.2.2,0,0,0,.05-.14m2.37.32a.76.76,0,0,1,.24.36,3.8,3.8,0,0,1,0,.67v1.95a6.67,6.67,0,0,1-.11,1.64c0,.08-.16.15-.37.19l-.18,0a.12.12,0,0,0,0,.12.15.15,0,0,0,.05.12h1.8s.07,0,.07-.11a.14.14,0,0,0,0-.13l-.18,0a.53.53,0,0,1-.43-.2A4.86,4.86,0,0,1,27,59.79V58.18a3.06,3.06,0,0,1,0-.53,10.58,10.58,0,0,1,1,1.05L30.86,62a.38.38,0,0,0,.33-.11c0-.13,0-.61,0-1.42v-2a5.83,5.83,0,0,1,.12-1.62c0-.09.16-.16.36-.2l.18,0a.16.16,0,0,0,.05-.14c0-.05,0-.09-.06-.1H30s-.06,0-.06.1a.14.14,0,0,0,0,.14l.18,0a.51.51,0,0,1,.43.21,4.75,4.75,0,0,1,.15,1.62V60.1c0,.12,0,.18,0,.2L29.51,59l-.83-.89a8.52,8.52,0,0,1-1.34-1.71l-.57,0-1,0s-.06,0-.07.1a.16.16,0,0,0,0,.14l.12,0a1.23,1.23,0,0,1,.44.16m7.5-.24a.17.17,0,0,0,0,.12l.17,0c.19,0,.31.07.34.18a2.71,2.71,0,0,1,.06.76v3a2.07,2.07,0,0,1-.09.79c-.05.09-.17.14-.38.16l-.17,0a.17.17,0,0,0,0,.13.15.15,0,0,0,.06.11l1,0,1.2.05a4.59,4.59,0,0,0,2-.39,2.67,2.67,0,0,0,1.13-1.05,2.56,2.56,0,0,0,.36-1.34,2.63,2.63,0,0,0-.48-1.57,2.54,2.54,0,0,0-1.21-.91,6.18,6.18,0,0,0-2-.27q-1.17,0-2.07.06a.14.14,0,0,0-.06.12m1.65.26a1.14,1.14,0,0,1,.66-.12,2.26,2.26,0,0,1,1.69.61,2.45,2.45,0,0,1,.65,1.83A2.76,2.76,0,0,1,38,60.9a2,2,0,0,1-1.62.69.89.89,0,0,1-.8-.31,1.93,1.93,0,0,1-.14-.92V57.44c0-.36,0-.57.07-.61m13.07-.49a.16.16,0,0,0-.14-.07h-.3c-.07,0-.14.16-.21.38h0l-.13.37v0c0,.07-.05.14-.08.22l-1.54,4a.91.91,0,0,1-.18.29.69.69,0,0,1-.27.1l-.25,0a.18.18,0,0,0,0,.13.14.14,0,0,0,0,.11h1.74a.12.12,0,0,0,0-.11.17.17,0,0,0,0-.13l-.23,0a.56.56,0,0,1-.31-.11c0-.07,0-.22,0-.45l.34-1a.74.74,0,0,1,.08-.2.61.61,0,0,1,.19,0h1.14a.86.86,0,0,1,.23,0,.43.43,0,0,1,.12.2l.39,1.13c.06.16.08.28,0,.33s-.12.08-.27.1l-.18,0a.16.16,0,0,0,0,.12.14.14,0,0,0,0,.12h2.09a.15.15,0,0,0,0-.12.14.14,0,0,0-.06-.12l-.12,0a.75.75,0,0,1-.42-.17,1.52,1.52,0,0,1-.23-.52l-1.57-4.6M48,57.57l.24.69.35,1c0,.09,0,.15,0,.18a.45.45,0,0,1-.22,0h-.9a.41.41,0,0,1-.17,0s0-.1,0-.22l.64-1.66h0m-6.11-.92a.48.48,0,0,1,.38.16,2,2,0,0,1,.09.78v3.09a2.07,2.07,0,0,1-.09.79c0,.09-.17.14-.38.16l-.17,0a.17.17,0,0,0-.05.13.15.15,0,0,0,.06.11H43.9a.15.15,0,0,0,.06-.11.17.17,0,0,0-.05-.13l-.17,0c-.21,0-.34-.07-.38-.16a2.07,2.07,0,0,1-.09-.79V57.59a2,2,0,0,1,.09-.78c0-.08.17-.14.38-.16l.17,0a.2.2,0,0,0,.05-.14c0-.05,0-.09-.06-.1H41.68s0,0-.06.1a.2.2,0,0,0,.05.14l.17,0m11.06.16a.76.76,0,0,1,.24.36,4.26,4.26,0,0,1,0,.67v1.95a6.92,6.92,0,0,1-.1,1.64c0,.08-.16.15-.37.19l-.18,0a.13.13,0,0,0,0,.12.13.13,0,0,0,.06.12h1.79c.05,0,.07,0,.07-.11a.12.12,0,0,0,0-.13l-.19,0a.53.53,0,0,1-.42-.2,4.86,4.86,0,0,1-.15-1.64V58.18a3.06,3.06,0,0,1,0-.53,14.19,14.19,0,0,1,1,1.05L57.44,62a.36.36,0,0,0,.32-.11c0-.13,0-.61,0-1.42v-2a6.51,6.51,0,0,1,.11-1.62c0-.09.16-.16.36-.2l.19,0a.16.16,0,0,0,0-.14c0-.05,0-.09-.06-.1H56.55s0,0,0,.1a.14.14,0,0,0,0,.14l.19,0a.5.5,0,0,1,.42.21,4.75,4.75,0,0,1,.15,1.62V60.1a.59.59,0,0,1,0,.2s-.41-.44-1.2-1.31l-.83-.89a8.32,8.32,0,0,1-1.33-1.71l-.58,0c-.49,0-.81,0-1,0s-.06,0-.07.1a.16.16,0,0,0,0,.14l.13,0A1.32,1.32,0,0,1,52.9,56.81Z"/></g><g id="Layer0_1_MEMBER_3_MEMBER_1_FILL" data-name="Layer0 1 MEMBER 3 MEMBER 1 FILL"><path d="M21.6,65.9H20.31s0,0,0,.06,0,.07,0,.08h.14c.12,0,.19.06.21.11a1,1,0,0,1,.06.46v1.85a8.42,8.42,0,0,1,0,1c0,.26-.08.38-.18.38a.45.45,0,0,1-.2-.09.55.55,0,0,0-.22-.09.19.19,0,0,0-.16.11.38.38,0,0,0-.06.19c0,.1.08.15.25.15a1.12,1.12,0,0,0,.68-.21,1.06,1.06,0,0,0,.38-.48,3,3,0,0,0,.1-.95V66.62a1.18,1.18,0,0,1,.06-.48s.09-.08.21-.09h.07a.13.13,0,0,0,0-.08.06.06,0,0,0,0-.06M36.4,66a.09.09,0,0,0,0,.07h.12c.11,0,.18,0,.2.11a1.84,1.84,0,0,1,0,.44v1.77a1.37,1.37,0,0,1,0,.45.29.29,0,0,1-.23.1l-.11,0a.13.13,0,0,0,0,.08s0,0,0,0h1.3s0,0,0,0,0-.07,0-.08l-.1,0a.29.29,0,0,1-.22-.1,1.37,1.37,0,0,1,0-.45v-.62c0-.05,0-.08,0-.09h.14a.42.42,0,0,1,.17,0,.45.45,0,0,1,.13.14c.07.12.2.34.37.65a2,2,0,0,0,.44.49,1.06,1.06,0,0,0,.58.15,1.3,1.3,0,0,0,.31,0s0-.07,0-.1a.58.58,0,0,1-.34-.15,6.32,6.32,0,0,1-.86-1.24q0-.08,0-.09a.8.8,0,0,0,.59-.76.74.74,0,0,0-.43-.71,2.11,2.11,0,0,0-.92-.16c-.44,0-.81,0-1.11,0a.08.08,0,0,0,0,.07m1,1.32v-1a.4.4,0,0,1,0-.21.45.45,0,0,1,.22,0,.61.61,0,0,1,.49.22.71.71,0,0,1,.18.49.61.61,0,0,1-.69.7.4.4,0,0,1-.21,0s0-.06,0-.14M23.81,69.18A1.71,1.71,0,0,0,25,68.71a1.63,1.63,0,0,0,.48-1.2,1.66,1.66,0,0,0-.43-1.17,1.62,1.62,0,0,0-1.26-.51,1.68,1.68,0,0,0-1.25.49,1.7,1.7,0,0,0-.48,1.23,1.58,1.58,0,0,0,.45,1.14,1.68,1.68,0,0,0,1.27.49m0-3.15a.93.93,0,0,1,.83.51,2.09,2.09,0,0,1,.26,1.07,1.56,1.56,0,0,1-.29,1,.83.83,0,0,1-.71.34.94.94,0,0,1-.86-.54,2.16,2.16,0,0,1-.24-1,1.55,1.55,0,0,1,.32-1.08.89.89,0,0,1,.69-.3m3.57-.13H26A.09.09,0,0,0,26,66,.13.13,0,0,0,26,66h.11a.38.38,0,0,1,.23.09,1.49,1.49,0,0,1,0,.46v1.81a1.37,1.37,0,0,1,0,.45.29.29,0,0,1-.23.1L26,69a.13.13,0,0,0,0,.08s0,0,0,0h1.3s0,0,0,0,0-.07,0-.08l-.11,0a.29.29,0,0,1-.22-.1,1.37,1.37,0,0,1,0-.45V66.6a1.49,1.49,0,0,1,0-.46.38.38,0,0,1,.22-.09h.11s0,0,0-.08a.08.08,0,0,0,0-.06m5,0a1.25,1.25,0,0,1-.33,0,.12.12,0,0,1-.09-.1.06.06,0,0,0-.06,0s0,0,0,0c-.06.24-.12.48-.2.72a.11.11,0,0,0,.08,0,.11.11,0,0,0,.08,0,.77.77,0,0,1,.28-.37,1.07,1.07,0,0,1,.47-.07h.28a.2.2,0,0,1,.11,0,.82.82,0,0,1,0,.19v2.09a1.37,1.37,0,0,1,0,.45.28.28,0,0,1-.22.09l-.21,0a.08.08,0,0,0,0,.06s0,.07,0,.07H33.9s0,0,0,0a.09.09,0,0,0,0-.08l-.19,0a.28.28,0,0,1-.22-.09,1.37,1.37,0,0,1,0-.45V66.32a.82.82,0,0,1,0-.19.2.2,0,0,1,.11,0h.28a1,1,0,0,1,.51.09.67.67,0,0,1,.17.37s0,0,.08,0a.06.06,0,0,0,.06,0c0-.08,0-.2,0-.37l.06-.4a.09.09,0,0,0-.07,0l-.06,0a.16.16,0,0,1-.11.1.83.83,0,0,1-.26,0h-2m-3.66,0h-.9a.1.1,0,0,0,0,.06s0,.07,0,.08h.08a1,1,0,0,1,.25.09.43.43,0,0,1,.14.21,2.75,2.75,0,0,1,0,.39v1.15a3.32,3.32,0,0,1-.07,1s-.09.09-.2.11l-.12,0a.08.08,0,0,0,0,.06s0,.07,0,.07h1.06a0,0,0,0,0,0,0s0-.07,0-.08l-.11,0q-.2,0-.24-.12a2.39,2.39,0,0,1-.1-1V67c0-.21,0-.31,0-.31s.25.26.55.61l1.67,1.92a.17.17,0,0,0,.18-.07c0-.07,0-.34,0-.82V67.12a3.32,3.32,0,0,1,.07-1s.09-.08.21-.11l.11,0s0,0,0-.08a.09.09,0,0,0,0-.06H30.18a.07.07,0,0,0,0,.06s0,.07,0,.08h.11q.2,0,.24.12a2.39,2.39,0,0,1,.1,1v.95c0,.07,0,.1,0,.11s-.24-.25-.7-.76l-.48-.53a4.68,4.68,0,0,1-.78-1m26.56,0c-.44,0-.81,0-1.11,0a.08.08,0,0,0,0,.07.09.09,0,0,0,0,.07h.12a.22.22,0,0,1,.2.11,1.84,1.84,0,0,1,0,.44v1.77a1.37,1.37,0,0,1,0,.45.29.29,0,0,1-.23.1l-.11,0a.13.13,0,0,0,0,.08s0,0,0,0h1.3s0,0,0,0,0-.07,0-.08l-.1,0a.29.29,0,0,1-.22-.1,1.37,1.37,0,0,1,0-.45v-.62c0-.05,0-.08,0-.09h.14a.42.42,0,0,1,.17,0,.35.35,0,0,1,.12.14c.08.12.21.34.38.65a2,2,0,0,0,.44.49,1.06,1.06,0,0,0,.58.15,1.3,1.3,0,0,0,.31,0s0-.07,0-.1a.56.56,0,0,1-.34-.15A6.32,6.32,0,0,1,56,67.62q0-.08,0-.09a.8.8,0,0,0,.59-.76.74.74,0,0,0-.43-.71,2.11,2.11,0,0,0-.92-.16m-.19.43a.4.4,0,0,1,0-.21.45.45,0,0,1,.22,0,.61.61,0,0,1,.49.22.71.71,0,0,1,.18.49.61.61,0,0,1-.69.7.4.4,0,0,1-.21,0s0-.06,0-.14v-1m3.32-.43H57.11a.06.06,0,0,0,0,.06s0,.07,0,.08l.13,0a.59.59,0,0,1,.21.1.68.68,0,0,1,.14.21l.59,1.16a1.07,1.07,0,0,1,.12.28,1.24,1.24,0,0,1,0,.31v.29a1.27,1.27,0,0,1-.05.45s-.1.08-.22.09l-.16,0a.13.13,0,0,0,0,.08s0,0,0,0h1.43s0,0,0,0,0-.07,0-.08l-.18,0c-.12,0-.2,0-.23-.09a1.27,1.27,0,0,1-.05-.45v-.3a1.22,1.22,0,0,1,0-.37,2.69,2.69,0,0,1,.13-.31l.46-.81a4,4,0,0,1,.28-.42.51.51,0,0,1,.25-.14l.14,0a.08.08,0,0,0,0-.08s0,0,0-.06h-1a.16.16,0,0,0,0,.06.19.19,0,0,0,0,.08l.17,0c.08,0,.12,0,.12.06a1.15,1.15,0,0,1-.13.33c-.17.31-.36.67-.59,1.07q-.22-.42-.57-1.17a.83.83,0,0,1-.08-.25s0,0,.09-.06l.15,0s0,0,0-.08a.07.07,0,0,0,0-.06M42,66.6s.06,0,.07,0,0-.36-.07-.67h-2.2a.06.06,0,0,0,0,.06s0,.07,0,.08h.07c.12,0,.2,0,.23.09a1.38,1.38,0,0,1,0,.46v1.81a1.27,1.27,0,0,1,0,.45s-.11.08-.23.09l-.17,0s0,0,0,.08a0,0,0,0,0,0,0H42.2a2,2,0,0,0,.21-.7.1.1,0,0,0-.07,0s-.07,0-.08,0a.91.91,0,0,1-.28.4,1.09,1.09,0,0,1-.62.12c-.31,0-.49,0-.54-.11a1,1,0,0,1-.08-.5v-.61a.31.31,0,0,1,0-.12h.34a2.78,2.78,0,0,1,.41,0,.28.28,0,0,1,.13.19l0,.19.09,0a.08.08,0,0,0,.07,0V67l-.07,0-.09,0,0,.16a.26.26,0,0,1-.14.19,1.49,1.49,0,0,1-.4,0h-.23a.23.23,0,0,1-.11,0s0,0,0-.12v-.81a1,1,0,0,1,0-.25s.08,0,.19,0h.32a2.09,2.09,0,0,1,.38,0c.14,0,.24.19.31.45H42M46.3,66h.1a.38.38,0,0,1,.23.09,1.38,1.38,0,0,1,0,.46v1.81a1.27,1.27,0,0,1,0,.45.29.29,0,0,1-.23.1l-.1,0s0,0,0,.08,0,0,0,0h1.3s0,0,0,0,0-.07,0-.08l-.1,0a.27.27,0,0,1-.22-.1,1.27,1.27,0,0,1,0-.45V66.6a1.38,1.38,0,0,1,0-.46.35.35,0,0,1,.22-.09h.1s0,0,0-.08a.08.08,0,0,0,0-.06h-1.3a.09.09,0,0,0,0,.06s0,.07,0,.08m-.93-.14a4.13,4.13,0,0,0-.65-.07,2,2,0,0,0-1.54.58,1.59,1.59,0,0,0-.44,1.13,1.49,1.49,0,0,0,.43,1.1,1.93,1.93,0,0,0,1.48.54,2.69,2.69,0,0,0,.66-.08.7.7,0,0,0,.4-.15v-.63a.78.78,0,0,1,0-.28.25.25,0,0,1,.18-.08l.08,0a.1.1,0,0,0,0-.14H44.65a.1.1,0,0,0,0,.14l.17,0c.16,0,.25.06.29.11a.67.67,0,0,1,0,.32v.17a.63.63,0,0,1,0,.3c-.06.08-.2.12-.44.12a1.14,1.14,0,0,1-.93-.42,1.65,1.65,0,0,1-.34-1.1,1.61,1.61,0,0,1,.31-1,1.15,1.15,0,0,1,.94-.4.84.84,0,0,1,.93.7.08.08,0,0,0,.08,0s.07,0,.07,0l0-.77-.31,0m4.62,0a5.21,5.21,0,0,0-.67-.11,1.11,1.11,0,0,0-.79.27.8.8,0,0,0-.27.62,1.09,1.09,0,0,0,.68.93l.21.12a.79.79,0,0,1,.49.7.49.49,0,0,1-.14.37.61.61,0,0,1-.43.15.71.71,0,0,1-.55-.29,1.29,1.29,0,0,1-.27-.47.08.08,0,0,0-.08,0,.07.07,0,0,0-.07,0,2.28,2.28,0,0,0,0,.45.78.78,0,0,0,.1.29,1.61,1.61,0,0,0,.8.2,1.24,1.24,0,0,0,.82-.26.87.87,0,0,0,.29-.68,1.06,1.06,0,0,0-.65-1l-.3-.16c-.31-.16-.46-.35-.46-.58a.51.51,0,0,1,.12-.35.54.54,0,0,1,.43-.16.65.65,0,0,1,.64.57.16.16,0,0,0,.09,0s.06,0,.07,0a1.52,1.52,0,0,0-.1-.65m.78-.18s0,0,0,0c-.06.24-.12.48-.2.72a.11.11,0,0,0,.08,0,.11.11,0,0,0,.08,0,.77.77,0,0,1,.28-.37,1.07,1.07,0,0,1,.47-.07h.28a.2.2,0,0,1,.11,0,.82.82,0,0,1,0,.19v2.09a1.37,1.37,0,0,1,0,.45.28.28,0,0,1-.22.09l-.21,0a.08.08,0,0,0,0,.06s0,.07,0,.07h1.46s0,0,0,0,0-.07,0-.08l-.18,0a.28.28,0,0,1-.22-.09,1.37,1.37,0,0,1,0-.45V66.32a.82.82,0,0,1,0-.19.2.2,0,0,1,.11,0h.28a.93.93,0,0,1,.5.09.61.61,0,0,1,.18.37s0,0,.08,0a.06.06,0,0,0,.06,0,2.93,2.93,0,0,1,0-.37l.06-.4a.09.09,0,0,0-.07,0l-.06,0a.15.15,0,0,1-.12.1.76.76,0,0,1-.25,0h-2a1.2,1.2,0,0,1-.32,0,.12.12,0,0,1-.09-.1A.07.07,0,0,0,50.77,65.76Z"/></g></svg>