<svg id="Layer_1" data-name="Layer 1" xmlns="http://www.w3.org/2000/svg" viewBox="0 0 48 48"><defs><style>.cls-1{fill:#0d47a1;}.cls-2{fill:#f1f9ff;}.cls-3{fill:#90caf9;}</style></defs><title>Artboard 1</title><g id="Layer0_0_FILL" data-name="Layer0 0 FILL"><path class="cls-1" d="M21.13,27.18c.17.31.31.61.44.91a12.16,12.16,0,0,1,1.5,4.83v.13a21,21,0,0,1-.52,3.33c-.14.65-.3,1.37-.5,2.14,0,.12-.05.24-.08.36A16.65,16.65,0,0,0,24,39a16.42,16.42,0,0,0,2.54-.19v0h0c.06-.26.13-.52.21-.79s.13-.51.21-.77q.66-2.46,1.52-4.83c.66-2.72.52-4.93-.44-6.62a.63.63,0,0,0-.21-.4l-.1-.08a.71.71,0,0,0-.32-.1,4,4,0,0,1-2.12-.61.74.74,0,0,1-.13-.12,1.65,1.65,0,0,0-1.87-.38,1.63,1.63,0,0,0-1,.71,1.22,1.22,0,0,0-.65.71A1.78,1.78,0,0,0,21,26.76a1.16,1.16,0,0,0,.14.42M26.7,16.52c-.62-1.13-1.21-2.28-1.77-3.46s-1.2-2.65-1.73-4a14.34,14.34,0,0,0-3.82.63L22,16.31a8.66,8.66,0,0,1,.66,3.22A3.88,3.88,0,0,0,23,21.78c.53.74,1.1.93,1.73.57,0,0,0,0,0,0a.32.32,0,0,1,.23-.08h0a.32.32,0,0,1,.17.06l.06.05,0,0c.76.48,1.69.32,2.79-.5l.13-.07c.3-.18.4-.61.29-1.29a8.21,8.21,0,0,0-1.13-2.85c-.21-.37-.43-.75-.64-1.14M31.11,20a.57.57,0,0,0-.6-.33.62.62,0,0,1-.56-.29c-.21-.26-.42-.33-.63-.19l-.12.11a.93.93,0,0,0-.19.43.91.91,0,0,0,0,.61,2.45,2.45,0,0,1,.08.29c0,.09.06.18.09.27a5.55,5.55,0,0,1,.14,1.14c.25,1,.68,1.48,1.27,1.44a.85.85,0,0,0,.55-.25.83.83,0,0,0,.27-.54A3.73,3.73,0,0,0,31.11,20Z"/><path class="cls-2" d="M18.38,18.72l-2.64-7.28a16.22,16.22,0,0,0-2.36,1.93A14.58,14.58,0,0,0,9,24a14.2,14.2,0,0,0,4.39,10.6,15.72,15.72,0,0,0,3.75,2.81,31.2,31.2,0,0,1,.3-6,42.86,42.86,0,0,1,1.33-6.16,8.78,8.78,0,0,0,.37-3.31,12.26,12.26,0,0,0-.75-3.19m11.8-5v0a16.7,16.7,0,0,0,1.56,3.62,8.27,8.27,0,0,1,.5,1,8.58,8.58,0,0,1,.41,1.06,5.77,5.77,0,0,1,.21.79,7.91,7.91,0,0,1,.19.81,6.88,6.88,0,0,1,.1.9,1.4,1.4,0,0,1,0,.29,7.18,7.18,0,0,1-.31,2.39c-.22.74-.6,1.86-1.12,3.36l-1.07,3.2a36.94,36.94,0,0,0-1.25,5.19c-.09.59-.16,1.18-.22,1.77a15,15,0,0,0,5.39-3.54,14.13,14.13,0,0,0,3.31-4.83A14.29,14.29,0,0,0,39,24a14.17,14.17,0,0,0-1.11-5.75,14.42,14.42,0,0,0-3.31-4.87A15.23,15.23,0,0,0,29.7,10.1v.4A13.37,13.37,0,0,0,30,12.91,7.81,7.81,0,0,0,30.18,13.68Z"/><path class="cls-3" d="M30.18,13.71v0a7.81,7.81,0,0,1-.21-.77,13.37,13.37,0,0,1-.27-2.41v-.4A14.89,14.89,0,0,0,24,9c-.2,0-.46,0-.79,0,.53,1.37,1.11,2.71,1.73,4s1.15,2.33,1.77,3.46l.66,1.14a9,9,0,0,1,1.13,2.85c.11.71,0,1.14-.31,1.29l-.13.07c-1.1.82-2,1-2.79.5l0,0-.06-.05a.32.32,0,0,0-.17-.06h0a.32.32,0,0,0-.23.08s0,0,0,0c-.63.36-1.2.17-1.73-.57a3.88,3.88,0,0,1-.38-2.25A8.66,8.66,0,0,0,22,16.31L19.38,9.67a14.58,14.58,0,0,0-3.64,1.77l2.64,7.28a12.26,12.26,0,0,1,.75,3.19,8.78,8.78,0,0,1-.37,3.31,42.86,42.86,0,0,0-1.33,6.16,31.2,31.2,0,0,0-.3,6A13.93,13.93,0,0,0,22,38.85c0-.1.05-.21.08-.33.2-.77.36-1.49.5-2.14a21,21,0,0,0,.52-3.33v-.13a12.16,12.16,0,0,0-1.5-4.83c-.13-.3-.27-.6-.44-.91a1.16,1.16,0,0,1-.14-.42,1.76,1.76,0,0,1,.6-1.27,1.29,1.29,0,0,1,.67-.69,1.63,1.63,0,0,1,1-.71,1.65,1.65,0,0,1,1.87.38.74.74,0,0,0,.13.12,4.34,4.34,0,0,0,2.12.59.88.88,0,0,1,.32.12l.1.08a.63.63,0,0,1,.21.4c1,1.69,1.1,3.9.44,6.62q-.86,2.37-1.52,4.83c-.08.26-.15.52-.21.77s-.15.53-.21.79h0a13.08,13.08,0,0,0,2.64-.66c.07-.59.15-1.18.25-1.77a36.94,36.94,0,0,1,1.25-5.19L31.72,28c.52-1.5.9-2.62,1.12-3.36a7.18,7.18,0,0,0,.31-2.39,1.4,1.4,0,0,0,0-.29A6.94,6.94,0,0,0,33,21a7.78,7.78,0,0,0-.17-.81,5.77,5.77,0,0,0-.21-.79,8.58,8.58,0,0,0-.41-1.06,8.27,8.27,0,0,0-.5-1,16.7,16.7,0,0,1-1.56-3.62m.33,6a.57.57,0,0,1,.6.33,3.73,3.73,0,0,1,.34,2.69.83.83,0,0,1-.27.54.85.85,0,0,1-.55.25c-.59,0-1-.44-1.27-1.44a5.55,5.55,0,0,0-.14-1.14c0-.09,0-.18-.09-.27a2.76,2.76,0,0,0-.08-.27,1,1,0,0,1,.15-1.06l.12-.11c.21-.14.42-.07.63.19A.62.62,0,0,0,30.51,19.7Z"/></g></svg>